<svg viewBox="0 0 256 256" xmlns="http://www.w3.org/2000/svg"><style>.st5{fill:#4b687f}</style><circle cx="128" cy="128" r="120" fill="#d5e2eb" id="Layer_2"/><g id="Layer_1"><path class="st5" d="M58.178 154.666h139.688v-85.34c0-2.5-2.045-4.544-4.544-4.544h-130.6a4.558 4.558 0 00-4.544 4.544v85.34zM148.405 174.375c.73 2.081-.845 4.07-2.847 4.07h-35.116c-2.002 0-3.578-1.989-2.847-4.07H46v5.865c0 6.063 4.915 10.978 10.978 10.978h142.044c6.063 0 10.978-4.915 10.978-10.978v-5.865h-61.595z"/><path fill="#fff" d="M67.267 73.87h121.511v71.707H67.267z"/><path fill="#3e5063" d="M197.866 157.56H58.178L46 174.375h164z"/><circle cx="199.796" cy="182.574" r="2.894" fill="#ea685e"/></g></svg>